PathFileType	4	(X/Y/Z)	SUBJ24_3_walk_RCNL2025.trc
DataRate	CameraRate	NumFrames	NumMarkers	Units	OrigDataRate	OrigDataStartFrame	OrigNumFrames
100	100	7	25	mm	100	356	406
Frame#	Time	R_Shoulder			L_Shoulder			C7			J_Notch			R_Elbow			L_Elbow			R_Wrist			L_Wrist			R_Asis			L_Asis			Sacral			Thoracic			Sternum			R_Thigh_Lateral			R_Knee_Lateral			R_Shank_Lateral			R_Ankle_Lateral			R_Heel			R_Toe			L_Thigh_Lateral			L_Knee_Lateral			L_Shank_Lateral			L_Ankle_Lateral			L_Heel			L_Toe		
		X1	Y1	Z1	X2	Y2	Z2	X3	Y3	Z3	X4	Y4	Z4	X5	Y5	Z5	X6	Y6	Z6	X7	Y7	Z7	X8	Y8	Z8	X9	Y9	Z9	X10	Y10	Z10	X11	Y11	Z11	X12	Y12	Z12	X13	Y13	Z13	X14	Y14	Z14	X15	Y15	Z15	X16	Y16	Z16	X17	Y17	Z17	X18	Y18	Z18	X19	Y19	Z19	X20	Y20	Z20	X21	Y21	Z21	X22	Y22	Z22	X23	Y23	Z23	X24	Y24	Z24	X25	Y25	Z25
356	3.55000000	845.408630	1318.515503	377.114319	806.766602	1320.937378	33.308800	742.040588	1381.410278	211.597015	876.192505	1291.329834	201.296616	837.184143	1034.780029	474.945831	757.383545	1029.276978	-43.961605	936.913818	819.661835	453.334183	804.008911	798.465210	-45.529616	856.928101	869.062195	373.894012	857.678589	883.307922	46.509075	681.892944	916.096191	219.402084	678.212097	1111.456299	220.162048	952.644409	1077.203125	197.069443	781.933289	558.200378	412.102600	846.280457	425.714661	351.653717	725.958679	344.720856	392.333588	539.970703	208.547729	309.899261	507.298615	236.033173	245.985291	567.230774	78.805779	300.368286	874.151794	571.669556	34.286552	915.925659	448.375244	96.139961	903.405334	290.193939	52.983871	891.204102	67.131714	128.550308	843.692932	41.792080	186.500885	1009.464966	48.542221	157.528946
357	3.56000000	855.303040	1320.111572	377.282623	817.765564	1323.261353	33.244865	752.810852	1383.483643	211.398026	886.772583	1293.189331	201.317764	845.538757	1036.408936	474.853455	773.316895	1031.308594	-45.764999	942.092834	819.796326	453.697510	827.373291	801.974518	-46.199576	867.704651	871.751709	373.379730	867.243469	884.564514	45.742332	692.156494	918.144653	218.795670	688.570068	1113.387085	218.897552	963.011841	1079.115234	197.010025	800.997742	560.327332	412.556732	869.082031	428.901764	352.377838	749.387939	347.476318	392.080872	564.803162	210.033707	308.749329	531.020447	235.357590	244.250336	596.403687	82.105156	302.539520	879.595947	572.557190	33.520161	918.734253	448.406158	95.646843	904.735535	290.082886	52.619507	891.214966	67.128387	128.470154	843.637878	41.889660	186.391342	1009.400391	48.524117	157.311478
358	3.57000000	865.113342	1321.571045	377.448914	828.745850	1325.565308	33.197273	763.540527	1385.491821	211.245682	897.292542	1294.953979	201.357712	853.634949	1037.945557	474.837189	789.152283	1033.459839	-47.610958	947.277527	820.030670	454.087128	850.796967	805.899841	-46.761644	878.454712	874.480957	372.941742	876.703064	885.765869	45.063904	702.346863	920.095459	218.352371	698.882019	1115.259766	217.606232	973.290588	1080.919312	196.960648	819.983276	562.548889	412.982574	891.685730	432.290192	352.925201	773.238892	349.517731	391.806549	590.609192	209.869141	307.715912	555.511597	232.881378	242.698318	627.343628	84.229172	304.573669	885.068115	573.441895	32.937939	921.396484	448.435059	95.342224	906.014038	290.021729	52.420052	891.252869	67.143806	128.445801	843.604736	41.980759	186.328339	1009.355591	48.494217	157.158829
359	3.58000000	874.869934	1322.900269	377.577637	839.705566	1327.843506	33.156128	774.229614	1387.402954	211.115616	907.761719	1296.601074	201.406845	861.482056	1039.386353	474.870636	804.877930	1035.708740	-49.488686	952.459290	820.335480	454.489578	874.216034	810.242096	-47.207441	889.196533	877.177979	372.557465	886.077759	886.915588	44.466995	712.478455	921.919739	218.082138	709.165466	1117.055298	216.342361	983.473938	1082.599365	196.896744	838.806274	564.787903	413.354706	914.011047	435.809357	353.299072	797.442444	350.760529	391.574341	617.330078	208.086197	306.863983	580.773987	228.716446	241.437012	659.759399	85.177528	306.348969	890.483337	574.256287	32.581486	923.947449	448.444305	95.217224	907.250610	290.003448	52.371468	891.315063	67.173233	128.483734	843.595581	42.058968	186.319778	1009.332825	48.455116	157.073395
360	3.59000000	884.587402	1324.099243	377.652527	850.646973	1330.078125	33.116535	784.877075	1389.183472	210.981400	918.189575	1298.107544	201.460922	869.095520	1040.723267	474.932098	820.473083	1038.023193	-51.387394	957.631897	820.674805	454.894470	897.570374	814.985413	-47.531815	899.943542	879.766846	372.207092	895.383301	888.002075	43.946564	722.565552	923.595581	217.989044	719.416016	1118.746216	215.141800	993.561340	1084.140625	196.805130	857.364746	567.008301	413.654205	935.961243	439.397919	353.508698	821.856445	351.234680	391.399109	644.920532	204.765137	306.231689	606.799255	222.972733	240.535782	693.469360	85.028282	307.789307	895.769409	574.941833	32.469147	926.426514	448.424591	95.257011	908.454773	290.016602	52.451359	891.397278	67.212685	128.585266	843.608521	42.120140	186.366119	1009.332397	48.408970	157.050552
361	3.60000000	894.268982	1325.161011	377.674835	861.576477	1332.239746	33.079205	795.483154	1390.802490	210.820358	928.585449	1299.452881	201.519547	876.497803	1041.945190	475.004700	835.914917	1040.360962	-53.295296	962.794342	821.009644	455.295181	920.805725	820.094849	-47.734645	910.709961	882.175781	371.875580	904.625916	889.004395	43.496853	732.621887	925.108398	218.070694	729.624512	1120.302368	214.017014	1003.559387	1085.528320	196.682709	875.568420	569.177917	413.874786	957.431335	443.001892	353.564056	846.315796	351.071655	391.270386	673.349670	200.020447	305.831787	633.601074	215.763519	240.014999	728.344543	83.908615	308.881409	900.872192	575.469116	32.586796	928.863464	448.376770	95.437698	909.637939	290.048523	52.633430	891.494690	67.259926	128.746445	843.637817	42.161957	186.462234	1009.352600	48.358009	157.080368
362	3.61000000	903.914368	1326.073730	377.657349	872.505188	1334.290405	33.048553	806.049194	1392.236816	210.617218	938.957520	1300.620483	201.584457	883.718567	1043.039062	475.074890	851.185486	1042.673828	-55.197914	967.951538	821.301727	455.688507	943.871063	825.517181	-47.818796	921.515503	884.350281	371.550507	913.799194	889.896484	43.110802	742.659180	926.449951	218.317612	739.793640	1121.700928	212.966705	1013.482666	1086.748047	196.534088	893.359070	571.253052	414.025299	978.319824	446.571503	353.475891	870.690796	350.428589	391.177277	702.600586	193.993958	305.657501	661.223938	207.213425	239.851181	764.269409	81.977303	309.668945	905.765320	575.842041	32.893524	931.273682	448.308990	95.727852	910.811340	290.088379	52.890381	891.601624	67.313568	128.958710	843.674927	42.183620	186.599976	1009.389771	48.305031	157.149338
